<svg width="119" height="86" viewBox="0 0 119 86" fill="none" xmlns="http://www.w3.org/2000/svg">
<path fill-rule="evenodd" clip-rule="evenodd" d="M108.8 49.67C108.35 50.27 108.13 50.62 107.73 51.1C106.27 52.85 104.36 55.68 103.25 56.88C86.72 74.72 57.68 82.58 34.45 76.94C25.19 74.69 14.88 68.15 11.58 59.54C7.46998 48.85 10.98 37.05 17.57 28.98C21.86 23.73 25.52 20.6 31.5 16.68C28.4 17.39 23.53 20.24 20.92 21.74C12.06 26.84 2.53998 37.45 0.619977 48.35C-1.21002 58.8 1.53998 65.78 6.71998 72.06C10.44 76.58 18.27 81.41 26.45 83.47C43.95 87.88 64.4 84.31 79 77.61C86.77 74.05 91.44 70.69 98.27 65.78C102.37 62.43 106.89 58.56 109.92 54.03C110.44 53.25 112.04 50.74 112.72 49.86L108.8 49.65V49.67Z" fill="#115990"/>
<path fill-rule="evenodd" clip-rule="evenodd" d="M46.51 5.23L46.48 18.54C55.04 16.26 55.11 14.4 67.97 12.45C86.23 9.69 110.88 15.33 112.72 34.87C113.2 40.03 111.51 42.54 110.37 46.58L114.61 46.55C123.05 28.51 117.11 12.77 100.46 5.06C83.08 -2.99 63.76 -0.319998 46.52 5.22L46.51 5.23Z" fill="#2A99D1"/>
<path fill-rule="evenodd" clip-rule="evenodd" d="M40.1901 36.07C40.2301 36.18 40.25 36.29 40.23 36.4C40.21 36.52 40.17 36.61 40.09 36.7L36.23 41.01H40.1901V42.18H34.92C34.8 42.18 34.7001 42.15 34.6001 42.08C34.5001 42.02 34.4301 41.93 34.3801 41.82C34.3301 41.72 34.3101 41.61 34.3301 41.49C34.3501 41.37 34.4001 41.28 34.4701 41.19L38.34 36.88H34.37V35.71H39.6601C39.7701 35.71 39.88 35.74 39.98 35.81C40.08 35.87 40.15 35.96 40.2 36.06L40.1901 36.07ZM46.31 38.92C46.31 39.08 46.2801 39.26 46.2201 39.44C46.1601 39.63 46.0701 39.8 45.9401 39.96C45.8101 40.12 45.6401 40.25 45.4401 40.36C45.2301 40.47 44.9801 40.52 44.6901 40.52H42.5801V39.41H44.6901C44.8501 39.41 44.97 39.36 45.06 39.26C45.15 39.16 45.1901 39.04 45.1901 38.9C45.1901 38.75 45.14 38.63 45.04 38.54C44.94 38.45 44.8201 38.41 44.6901 38.41H42.5801C42.4201 38.41 42.3001 38.46 42.2101 38.56C42.1201 38.66 42.0801 38.78 42.0801 38.92V40.55C42.0801 40.71 42.13 40.83 42.23 40.91C42.33 41 42.45 41.04 42.59 41.04H44.6901V42.16H42.5801C42.4201 42.16 42.24 42.13 42.06 42.07C41.87 42.01 41.7 41.92 41.54 41.79C41.38 41.66 41.24 41.5 41.14 41.29C41.03 41.08 40.98 40.84 40.98 40.54V38.9C40.98 38.74 41.0101 38.56 41.0701 38.38C41.1301 38.19 41.2201 38.02 41.3501 37.86C41.4801 37.7 41.6401 37.56 41.8501 37.46C42.0601 37.35 42.3001 37.3 42.6001 37.3H44.7101C44.8701 37.3 45.05 37.33 45.23 37.39C45.42 37.45 45.59 37.54 45.75 37.67C45.91 37.8 46.05 37.96 46.15 38.17C46.26 38.38 46.31 38.62 46.31 38.92ZM52.0801 40.56C52.0801 40.72 52.0501 40.9 51.9901 41.08C51.9301 41.27 51.8401 41.44 51.7101 41.6C51.5801 41.76 51.4201 41.9 51.2101 42C51.0001 42.11 50.7601 42.16 50.4601 42.16H48.3501C48.1901 42.16 48.0101 42.13 47.8301 42.07C47.6401 42.01 47.47 41.92 47.31 41.79C47.15 41.66 47.0201 41.5 46.9101 41.29C46.8001 41.08 46.75 40.84 46.75 40.54C46.75 40.38 46.78 40.2 46.84 40.01C46.9 39.82 46.99 39.65 47.12 39.49C47.25 39.33 47.42 39.2 47.62 39.09C47.83 38.98 48.08 38.93 48.37 38.93H50.48V40.05H48.37C48.21 40.05 48.09 40.1 48 40.2C47.91 40.3 47.87 40.42 47.87 40.56C47.87 40.71 47.9201 40.83 48.0201 40.92C48.1201 41.01 48.2401 41.05 48.3801 41.05H50.48C50.64 41.05 50.7601 41 50.8501 40.91C50.9401 40.81 50.98 40.69 50.98 40.55V38.92C50.98 38.77 50.93 38.65 50.84 38.55C50.75 38.46 50.63 38.42 50.48 38.42H47.9101V37.31H50.48C50.64 37.31 50.82 37.34 51 37.4C51.19 37.46 51.3601 37.55 51.5201 37.68C51.6801 37.81 51.82 37.97 51.92 38.18C52.03 38.39 52.0801 38.63 52.0801 38.93V40.57V40.56ZM55.2201 42.17H54.7C54.53 42.17 54.3501 42.14 54.1601 42.08C53.9701 42.02 53.7901 41.93 53.6301 41.8C53.4701 41.67 53.3301 41.5 53.2201 41.29C53.1101 41.08 53.06 40.83 53.06 40.52V35.24H54.23V40.52C54.23 40.66 54.2701 40.78 54.3601 40.86C54.4501 40.94 54.56 40.99 54.7 40.99H55.2201V42.16V42.17ZM64.78 36.89H62.2V42.18H61.03V36.89H58.45V35.72H64.78V36.89ZM70.23 38.92C70.23 39.08 70.2 39.26 70.14 39.44C70.08 39.63 69.9901 39.8 69.8601 39.96C69.7301 40.12 69.5601 40.25 69.3601 40.36C69.1501 40.47 68.9001 40.52 68.6101 40.52H66.5V39.41H68.6101C68.7701 39.41 68.89 39.36 68.98 39.26C69.07 39.16 69.1101 39.04 69.1101 38.9C69.1101 38.75 69.0601 38.63 68.9601 38.54C68.8601 38.45 68.7401 38.41 68.6101 38.41H66.5C66.34 38.41 66.2201 38.46 66.1301 38.56C66.0401 38.66 66 38.78 66 38.92V40.55C66 40.71 66.05 40.83 66.15 40.91C66.25 41 66.37 41.04 66.51 41.04H68.6101V42.16H66.5C66.34 42.16 66.16 42.13 65.98 42.07C65.79 42.01 65.6201 41.92 65.4601 41.79C65.3001 41.66 65.16 41.5 65.06 41.29C64.95 41.08 64.9 40.84 64.9 40.54V38.9C64.9 38.74 64.9301 38.56 64.9901 38.38C65.0501 38.19 65.1401 38.02 65.2701 37.86C65.4001 37.7 65.5601 37.56 65.7701 37.46C65.9801 37.35 66.2201 37.3 66.5201 37.3H68.6301C68.7901 37.3 68.97 37.33 69.15 37.39C69.34 37.45 69.51 37.54 69.67 37.67C69.83 37.8 69.9701 37.96 70.0701 38.17C70.1801 38.38 70.23 38.62 70.23 38.92ZM75.73 42.17H72.56C72.4 42.17 72.22 42.14 72.03 42.08C71.84 42.02 71.66 41.93 71.5 41.8C71.34 41.67 71.2 41.5 71.09 41.29C70.98 41.08 70.93 40.83 70.93 40.52V38.93C70.93 38.82 70.9401 38.7 70.9701 38.58C70.9901 38.46 71.03 38.33 71.09 38.21C71.15 38.09 71.2101 37.97 71.3001 37.86C71.3801 37.75 71.4901 37.65 71.6101 37.57C71.7301 37.49 71.87 37.42 72.03 37.37C72.19 37.32 72.3701 37.29 72.5701 37.29H75.7401V38.46H72.5701C72.4201 38.46 72.3001 38.5 72.2201 38.58C72.1401 38.66 72.1001 38.78 72.1001 38.94V40.52C72.1001 40.67 72.1401 40.79 72.2201 40.87C72.3001 40.95 72.4201 40.99 72.5701 40.99H75.7401V42.16L75.73 42.17ZM82.1101 42.17H80.9401V38.94C80.9401 38.79 80.9001 38.67 80.8201 38.59C80.7401 38.51 80.6201 38.47 80.4701 38.47H78.3601V37.3H80.4701C80.5801 37.3 80.7001 37.31 80.8201 37.34C80.9401 37.37 81.0701 37.4 81.1901 37.46C81.3101 37.51 81.43 37.58 81.54 37.67C81.65 37.75 81.7501 37.86 81.8301 37.98C81.9101 38.1 81.98 38.24 82.03 38.4C82.08 38.56 82.1101 38.74 82.1101 38.94V42.17ZM77.89 42.17H76.7201V35.25H77.89V42.17Z" fill="#2F2483"/>
<path fill-rule="evenodd" clip-rule="evenodd" d="M29.55 50.09H28.37V46.25L26.29 49.9C26.24 49.99 26.17 50.06 26.08 50.11C25.99 50.16 25.89 50.18 25.79 50.18C25.69 50.18 25.59 50.16 25.5 50.11C25.41 50.06 25.34 49.99 25.29 49.9L23.2 46.25V50.09H22.03V44.13C22.03 43.99 22.07 43.87 22.15 43.77C22.23 43.66 22.33 43.59 22.46 43.56C22.52 43.54 22.59 43.54 22.65 43.54C22.71 43.54 22.77 43.56 22.83 43.58C22.89 43.6 22.94 43.63 22.99 43.68C23.04 43.72 23.08 43.77 23.11 43.83L25.78 48.46L28.44 43.83C28.51 43.72 28.6 43.63 28.73 43.59C28.85 43.54 28.98 43.53 29.11 43.57C29.24 43.61 29.34 43.68 29.42 43.78C29.5 43.88 29.54 44 29.54 44.14V50.1L29.55 50.09ZM35.98 46.83C35.98 46.99 35.95 47.17 35.89 47.35C35.83 47.54 35.74 47.71 35.61 47.87C35.48 48.03 35.31 48.16 35.11 48.27C34.9 48.38 34.65 48.43 34.36 48.43H32.25V47.32H34.36C34.52 47.32 34.64 47.27 34.73 47.17C34.82 47.07 34.86 46.95 34.86 46.81C34.86 46.66 34.81 46.54 34.71 46.45C34.61 46.36 34.49 46.32 34.36 46.32H32.25C32.09 46.32 31.97 46.37 31.88 46.47C31.79 46.57 31.75 46.69 31.75 46.83V48.46C31.75 48.62 31.8 48.74 31.9 48.82C32 48.91 32.12 48.95 32.26 48.95H34.36V50.07H32.25C32.09 50.07 31.91 50.04 31.73 49.98C31.54 49.92 31.37 49.83 31.21 49.7C31.05 49.57 30.91 49.41 30.81 49.2C30.7 48.99 30.65 48.75 30.65 48.45V46.81C30.65 46.65 30.68 46.47 30.74 46.29C30.8 46.1 30.89 45.93 31.02 45.77C31.15 45.61 31.31 45.47 31.52 45.37C31.73 45.26 31.97 45.21 32.27 45.21H34.38C34.54 45.21 34.72 45.24 34.9 45.3C35.09 45.36 35.26 45.45 35.42 45.58C35.58 45.71 35.72 45.87 35.82 46.08C35.93 46.29 35.98 46.53 35.98 46.83ZM42.11 48.45C42.11 48.65 42.08 48.83 42.03 48.99C41.98 49.15 41.91 49.29 41.83 49.41C41.75 49.53 41.65 49.64 41.54 49.72C41.43 49.81 41.31 49.88 41.19 49.93C41.07 49.99 40.95 50.03 40.82 50.05C40.7 50.08 40.58 50.09 40.47 50.09H38.36C38.16 50.09 37.98 50.06 37.82 50.01C37.66 49.96 37.52 49.89 37.4 49.81C37.28 49.72 37.18 49.63 37.09 49.51C37 49.4 36.93 49.28 36.88 49.16C36.83 49.04 36.79 48.92 36.76 48.79C36.74 48.67 36.72 48.55 36.72 48.44V46.85C36.72 46.55 36.78 46.3 36.88 46.09C36.99 45.88 37.13 45.71 37.29 45.58C37.45 45.45 37.63 45.36 37.82 45.3C38.01 45.24 38.19 45.21 38.35 45.21H40.46V46.38H38.36C38.2 46.38 38.08 46.42 38 46.5C37.92 46.58 37.88 46.7 37.88 46.85V48.43C37.88 48.59 37.92 48.71 38 48.79C38.08 48.87 38.19 48.91 38.35 48.91H40.46C40.62 48.91 40.74 48.87 40.81 48.79C40.89 48.71 40.93 48.59 40.93 48.44V43.16H42.1V48.44L42.11 48.45ZM44.41 44.22H43.24V43.16H44.41V44.22ZM44.41 50.09H43.24V45.22H44.41V50.09ZM50.56 48.48C50.56 48.64 50.53 48.82 50.47 49C50.41 49.19 50.32 49.36 50.19 49.52C50.06 49.68 49.9 49.82 49.69 49.92C49.48 50.03 49.24 50.08 48.94 50.08H46.83C46.67 50.08 46.49 50.05 46.31 49.99C46.12 49.93 45.95 49.84 45.79 49.71C45.63 49.58 45.49 49.42 45.39 49.21C45.28 49 45.23 48.76 45.23 48.46C45.23 48.3 45.26 48.12 45.32 47.93C45.38 47.74 45.47 47.57 45.6 47.41C45.73 47.25 45.9 47.12 46.1 47.01C46.31 46.9 46.56 46.85 46.85 46.85H48.96V47.97H46.85C46.69 47.97 46.57 48.02 46.48 48.12C46.39 48.22 46.35 48.34 46.35 48.48C46.35 48.63 46.4 48.75 46.5 48.84C46.6 48.93 46.72 48.97 46.86 48.97H48.96C49.12 48.97 49.24 48.92 49.33 48.83C49.42 48.73 49.46 48.61 49.46 48.47V46.84C49.46 46.69 49.41 46.57 49.32 46.47C49.23 46.38 49.11 46.34 48.96 46.34H46.39V45.23H48.96C49.12 45.23 49.3 45.26 49.48 45.32C49.67 45.38 49.84 45.47 50 45.6C50.16 45.73 50.3 45.89 50.4 46.1C50.51 46.31 50.56 46.55 50.56 46.85V48.49V48.48ZM60.89 48.19C60.89 48.42 60.86 48.63 60.8 48.81C60.74 49 60.66 49.16 60.57 49.3C60.47 49.44 60.36 49.56 60.23 49.66C60.1 49.76 59.97 49.84 59.83 49.9C59.69 49.96 59.55 50.01 59.41 50.04C59.27 50.07 59.13 50.08 59.01 50.08H54.49V48.91H59.01C59.23 48.91 59.41 48.84 59.53 48.71C59.65 48.58 59.72 48.4 59.72 48.18C59.72 48.07 59.7 47.97 59.67 47.88C59.64 47.79 59.59 47.71 59.53 47.65C59.47 47.58 59.39 47.53 59.31 47.5C59.22 47.46 59.12 47.45 59.02 47.45H56.33C56.14 47.45 55.94 47.42 55.72 47.35C55.5 47.28 55.3 47.17 55.11 47.02C54.92 46.87 54.77 46.67 54.64 46.43C54.52 46.19 54.45 45.89 54.45 45.54C54.45 45.19 54.51 44.89 54.64 44.65C54.76 44.41 54.92 44.21 55.11 44.06C55.3 43.91 55.5 43.8 55.72 43.73C55.94 43.66 56.14 43.63 56.33 43.63H60.31V44.8H56.33C56.11 44.8 55.94 44.87 55.81 45C55.69 45.14 55.62 45.31 55.62 45.54C55.62 45.77 55.68 45.94 55.81 46.07C55.93 46.2 56.11 46.27 56.33 46.27H59.03C59.16 46.27 59.29 46.29 59.43 46.32C59.57 46.35 59.71 46.4 59.85 46.47C59.99 46.54 60.12 46.62 60.25 46.72C60.38 46.82 60.49 46.94 60.58 47.08C60.68 47.22 60.76 47.38 60.81 47.57C60.87 47.75 60.89 47.96 60.89 48.19ZM67.02 48.45C67.02 48.65 66.99 48.83 66.94 48.99C66.89 49.15 66.82 49.29 66.74 49.41C66.66 49.53 66.56 49.64 66.45 49.72C66.34 49.81 66.22 49.88 66.1 49.93C65.98 49.99 65.85 50.03 65.73 50.05C65.61 50.08 65.49 50.09 65.38 50.09H63.27C63.11 50.09 62.93 50.06 62.74 50C62.55 49.94 62.37 49.85 62.21 49.72C62.05 49.59 61.91 49.42 61.8 49.21C61.69 49 61.64 48.75 61.64 48.44V46.85C61.64 46.55 61.7 46.3 61.8 46.09C61.91 45.88 62.05 45.71 62.21 45.58C62.37 45.45 62.55 45.36 62.74 45.3C62.93 45.24 63.11 45.21 63.27 45.21H65.38C65.68 45.21 65.94 45.26 66.15 45.37C66.36 45.48 66.53 45.61 66.66 45.78C66.79 45.94 66.88 46.12 66.94 46.31C67 46.5 67.03 46.68 67.03 46.84V48.43L67.02 48.45ZM65.85 46.87C65.85 46.71 65.81 46.59 65.73 46.51C65.65 46.43 65.53 46.39 65.38 46.39H63.28C63.12 46.39 63.01 46.43 62.93 46.51C62.85 46.59 62.81 46.71 62.81 46.86V48.45C62.81 48.6 62.85 48.72 62.93 48.8C63.01 48.88 63.13 48.92 63.28 48.92H65.38C65.54 48.92 65.66 48.88 65.74 48.8C65.82 48.72 65.86 48.6 65.86 48.45V46.87H65.85ZM70.16 50.09H69.64C69.47 50.09 69.29 50.06 69.1 50C68.91 49.94 68.73 49.85 68.57 49.72C68.41 49.59 68.27 49.42 68.16 49.21C68.05 49 68 48.75 68 48.44V43.16H69.17V48.44C69.17 48.58 69.21 48.7 69.3 48.78C69.39 48.86 69.5 48.91 69.64 48.91H70.16V50.08V50.09ZM76.16 49.5C76.16 49.58 76.15 49.66 76.12 49.73C76.09 49.8 76.05 49.86 76 49.92C75.95 49.97 75.89 50.01 75.82 50.04C75.75 50.07 75.67 50.08 75.59 50.08H72.94C72.8 50.08 72.64 50.06 72.48 50.03C72.32 50 72.16 49.94 72 49.87C71.84 49.8 71.69 49.7 71.54 49.59C71.39 49.48 71.26 49.34 71.15 49.18C71.04 49.02 70.95 48.83 70.88 48.62C70.81 48.41 70.78 48.17 70.78 47.91V45.21H71.95V47.91C71.95 48.06 71.98 48.2 72.03 48.32C72.08 48.44 72.15 48.55 72.24 48.63C72.33 48.72 72.43 48.78 72.56 48.83C72.68 48.88 72.81 48.9 72.95 48.9H75V45.2H76.17V49.48L76.16 49.5ZM81.68 46.39H79.64V50.09H78.46V46.39H76.94V45.22H78.46V43.63H79.64V45.22H81.68V46.39ZM83.64 44.22H82.47V43.16H83.64V44.22ZM83.64 50.09H82.47V45.22H83.64V50.09ZM90.05 48.45C90.05 48.65 90.02 48.83 89.97 48.99C89.92 49.15 89.85 49.29 89.77 49.41C89.69 49.53 89.59 49.64 89.48 49.72C89.37 49.81 89.25 49.88 89.13 49.93C89.01 49.99 88.88 50.03 88.76 50.05C88.64 50.08 88.52 50.09 88.41 50.09H86.3C86.14 50.09 85.96 50.06 85.77 50C85.58 49.94 85.4 49.85 85.24 49.72C85.08 49.59 84.94 49.42 84.83 49.21C84.72 49 84.67 48.75 84.67 48.44V46.85C84.67 46.55 84.73 46.3 84.83 46.09C84.93 45.88 85.08 45.71 85.24 45.58C85.4 45.45 85.58 45.36 85.77 45.3C85.96 45.24 86.14 45.21 86.3 45.21H88.41C88.71 45.21 88.97 45.26 89.18 45.37C89.39 45.48 89.56 45.61 89.69 45.78C89.82 45.94 89.91 46.12 89.97 46.31C90.03 46.5 90.06 46.68 90.06 46.84V48.43L90.05 48.45ZM88.88 46.87C88.88 46.71 88.84 46.59 88.76 46.51C88.68 46.43 88.56 46.39 88.41 46.39H86.31C86.16 46.39 86.04 46.43 85.96 46.51C85.88 46.59 85.84 46.71 85.84 46.86V48.45C85.84 48.6 85.88 48.72 85.96 48.8C86.04 48.88 86.16 48.92 86.31 48.92H88.41C88.57 48.92 88.69 48.88 88.77 48.8C88.85 48.72 88.89 48.6 88.89 48.45V46.87H88.88ZM96.44 50.09H95.27V47.39C95.27 47.24 95.24 47.1 95.19 46.98C95.14 46.86 95.07 46.75 94.98 46.67C94.89 46.58 94.78 46.52 94.66 46.47C94.54 46.42 94.41 46.4 94.27 46.4H92.22V50.1H91.05V45.81C91.05 45.73 91.07 45.65 91.1 45.58C91.13 45.51 91.17 45.45 91.23 45.4C91.28 45.35 91.35 45.31 91.42 45.28C91.49 45.25 91.57 45.24 91.65 45.24H94.29C94.44 45.24 94.59 45.26 94.76 45.29C94.92 45.32 95.09 45.38 95.25 45.45C95.41 45.52 95.56 45.62 95.71 45.73C95.86 45.84 95.98 45.98 96.1 46.14C96.21 46.3 96.3 46.49 96.37 46.7C96.44 46.91 96.47 47.15 96.47 47.41V50.11L96.44 50.09Z" fill="#2F2483"/>
</svg>
